HIERARCHY
ROOT pelvis
{
  OFFSET 0 100 0
  CHANNELS 6 Xposition Yposition Zposition Zrotation Xrotation Yrotation
  JOINT pelvis_right_femur
  {
    OFFSET -10.78128 -3.44521 -0.5502486
    CHANNELS 3 Zrotation Xrotation Yrotation
    JOINT right_femur_tibia
    {
      OFFSET -0.8047443 -44.0398 -0.1307829
      CHANNELS 3 Zrotation Xrotation Yrotation
      JOINT right_tibia_foot
      {
        OFFSET 3.006224 -47.83518 -5
        CHANNELS 3 Zrotation Xrotation Yrotation
        End Site
        {
          OFFSET 0 -5 15
        }
      }
    }
  }
  JOINT pelvis_left_femur
  {
    OFFSET 10.78128 -3.44521 -0.5502486
    CHANNELS 3 Zrotation Xrotation Yrotation
    JOINT left_femur_tibia
    {
      OFFSET 0.8047443 -44.0398 -0.1307829
      CHANNELS 3 Zrotation Xrotation Yrotation
      JOINT left_tibia_foot
      {
        OFFSET -4.370144 -48.10324 -4.275266
        CHANNELS 3 Zrotation Xrotation Yrotation
        End Site
        {
          OFFSET 0 -5 15
        }
      }
    }
  }
  JOINT pelvis_spine1
  {
    OFFSET 0 6.468898 -3.129235
    CHANNELS 3 Zrotation Xrotation Yrotation
    JOINT spine1
    {
      OFFSET 0 23.15396 4.99043
      CHANNELS 3 Zrotation Xrotation Yrotation
      JOINT spine2
      {
        OFFSET 0 20.79997 -5.064912
        CHANNELS 3 Zrotation Xrotation Yrotation
        JOINT neck
        {
          OFFSET 0 14.38658 9.616178
          CHANNELS 3 Zrotation Xrotation Yrotation
          End Site
          {
            OFFSET 0 20 0
          }
        }
      }
      JOINT right_manubrium
      {
        OFFSET -5.722621 16.35077 3.967754
        CHANNELS 3 Zrotation Xrotation Yrotation
        JOINT right_clavicle
        {
          OFFSET -13.16364 1.694482 -4.693211
          CHANNELS 3 Zrotation Xrotation Yrotation
          JOINT right_humerus
          {
            OFFSET -28.5034 -0.3100689 -2.792744
            CHANNELS 3 Zrotation Xrotation Yrotation
            JOINT right_radius
            {
              OFFSET -25.15693 0.02248979 -1.271978
              CHANNELS 3 Zrotation Xrotation Yrotation
              End Site
              {
                OFFSET -15 0 0
              }
            }
          }
        }
      }
      JOINT left_manubrium
      {
        OFFSET 5.722621 16.35077 3.967754
        CHANNELS 3 Zrotation Xrotation Yrotation
        JOINT left_clavicle
        {
          OFFSET 13.16364 1.694482 -4.693211
          CHANNELS 3 Zrotation Xrotation Yrotation
          JOINT left_humerus
          {
            OFFSET 29.39168 -1.063119 -2.237045
            CHANNELS 3 Zrotation Xrotation Yrotation
            JOINT left_radius
            {
              OFFSET 24.59957 -0.9528479 0.9047498
              CHANNELS 3 Zrotation Xrotation Yrotation
              End Site
              {
                OFFSET 15 -0 -0
              }
            }
          }
        }
      }
    }
  }
}
MOTION
Frames: 23
Frame Time: 0.0416666666667
-715.9441 167.0207 2065.762 -14.69893 9.059568 -122.2289 2.693539 13.22651 -11.05126 -0 22.3897 -0 -20.79605 3.355582 2.63398 -2.421707 -1.902409 -14.17979 -0 16.79099 -0 -7.512844 -13.52886 21.47736 1.076546 -1.879195 7.480771 1.246147 15.93499 -8.814016 -0.2487759 21.0587 3.525626 3.317805 -19.39419 2.328765 -3.382806 -25.41875 13.0098 94.53943 20.43767 -21.38887 -0 0 17.80588 -19.84429 9.009545 3.500102 4.381999 -28.12337 -10.40152 -88.97608 7.872472 24.08158 0 0 -18.27833 15.57141 13.10811 -10.18351
-721.3557 166.8935 2062.671 -14.62457 9.180647 -122.6978 2.693452 13.22616 -11.05132 -0 22.38972 -0 -20.79601 3.35584 2.634063 -2.421772 -1.902174 -14.17973 -0 16.79098 -0 -7.512819 -13.52899 21.47727 1.076548 -1.879198 7.480747 1.246149 15.93498 -8.814032 -0.2487727 21.05871 3.525635 3.317806 -19.39422 2.328778 -3.382831 -25.4187 13.00979 94.53949 20.43765 -21.38896 -0 0 17.80577 -19.8443 9.00953 3.500073 4.382033 -28.1234 -10.40152 -88.97601 7.872478 24.08142 0 0 -18.27852 15.57145 13.10812 -10.18358
-726.7413 166.7663 2059.534 -14.54918 9.301129 -123.1671 2.693383 13.22576 -11.0514 -0 22.38966 -0 -20.79598 3.356085 2.634133 -2.421829 -1.901908 -14.17967 -0 16.79102 -0 -7.512793 -13.52914 21.47717 1.076548 -1.8792 7.480719 1.246148 15.93498 -8.814046 -0.2487698 21.05872 3.525647 3.317813 -19.39425 2.328789 -3.382851 -25.41863 13.00978 94.53955 20.43764 -21.38905 -0 0 17.80565 -19.84432 9.009513 3.500042 4.382075 -28.12344 -10.40152 -88.97593 7.872482 24.08123 0 0 -18.27872 15.5715 13.10812 -10.18367
-732.1005 166.6391 2056.352 -14.47279 9.421007 -123.6366 2.693333 13.22535 -11.0515 -0 22.38954 -0 -20.79596 3.356306 2.634189 -2.421876 -1.901625 -14.17959 -0 16.79108 -0 -7.512765 -13.52929 21.47708 1.076546 -1.879201 7.480688 1.246146 15.93497 -8.814058 -0.2487675 21.05874 3.525663 3.317824 -19.39427 2.328799 -3.382865 -25.41856 13.00977 94.53961 20.43763 -21.38914 -0 0 17.80553 -19.84434 9.009495 3.500009 4.382122 -28.12348 -10.40153 -88.97586 7.872484 24.08103 0 0 -18.27893 15.57155 13.10812 -10.18375
-737.433 166.5119 2053.126 -14.3954 9.540275 -124.1065 2.693303 13.22494 -11.05161 -0 22.38936 -0 -20.79595 3.356496 2.634227 -2.421913 -1.901338 -14.17951 -0 16.79118 -0 -7.512739 -13.52945 21.47699 1.076541 -1.879201 7.480657 1.246141 15.93496 -8.814068 -0.2487657 21.05875 3.52568 3.31784 -19.39429 2.328807 -3.382874 -25.41848 13.00976 94.53966 20.43763 -21.38924 -0 0 17.8054 -19.84436 9.009475 3.499977 4.382171 -28.12351 -10.40153 -88.97578 7.872484 24.08083 0 0 -18.27913 15.5716 13.10812 -10.18384
-742.7383 166.3846 2049.856 -14.31699 9.658926 -124.5766 2.693294 13.22455 -11.05173 -0 22.38914 -0 -20.79595 3.356648 2.634249 -2.421937 -1.90106 -14.17942 -0 16.7913 -0 -7.512715 -13.52959 21.4769 1.076534 -1.879201 7.480626 1.246136 15.93495 -8.814076 -0.2487646 21.05876 3.525698 3.317859 -19.3943 2.328813 -3.382876 -25.41841 13.00975 94.5397 20.43764 -21.38932 -0 0 17.80529 -19.84438 9.009456 3.499946 4.382221 -28.12355 -10.40154 -88.97571 7.872483 24.08064 0 0 -18.27932 15.57164 13.10812 -10.18392
-748.0161 166.2574 2046.541 -14.23759 9.776952 -125.0472 2.693304 13.22419 -11.05185 -0 22.38888 -0 -20.79596 3.356757 2.634254 -2.421949 -1.900802 -14.17934 -0 16.79143 -0 -7.512693 -13.52973 21.47683 1.076526 -1.879199 7.480597 1.246129 15.93494 -8.81408 -0.2487641 21.05877 3.525717 3.317881 -19.3943 2.328817 -3.382874 -25.41833 13.00974 94.53973 20.43766 -21.38939 -0 0 17.80518 -19.8444 9.009438 3.499919 4.382269 -28.12358 -10.40154 -88.97564 7.872479 24.08046 0 0 -18.27949 15.57169 13.10811 -10.18399
-753.266 166.1301 2043.182 -14.15718 9.894344 -125.518 2.693331 13.22388 -11.05197 -0 22.38861 -0 -20.79598 3.356822 2.634242 -2.421949 -1.900574 -14.17927 -0 16.79157 -0 -7.512675 -13.52985 21.47678 1.076518 -1.879197 7.480571 1.246121 15.93493 -8.814082 -0.2487642 21.05878 3.525735 3.317904 -19.3943 2.328819 -3.382866 -25.41826 13.00973 94.53975 20.43767 -21.38945 -0 0 17.80509 -19.84442 9.009421 3.499896 4.382314 -28.12361 -10.40155 -88.97558 7.872475 24.0803 0 0 -18.27963 15.57172 13.10811 -10.18406
-758.4877 166.0028 2039.779 -14.07577 10.01109 -125.9892 2.693375 13.22363 -11.05208 -0 22.38833 -0 -20.79601 3.356842 2.634216 -2.421938 -1.900385 -14.1792 -0 16.79172 -0 -7.512661 -13.52995 21.47674 1.076508 -1.879195 7.480549 1.246113 15.93492 -8.814081 -0.2487649 21.05879 3.525752 3.317927 -19.3943 2.328818 -3.382853 -25.41821 13.00972 94.53976 20.4377 -21.3895 -0 0 17.80502 -19.84443 9.009407 3.499878 4.382353 -28.12364 -10.40156 -88.97554 7.872469 24.08017 0 0 -18.27974 15.57175 13.1081 -10.18411
-763.6807 165.8756 2036.333 -13.99337 10.12719 -126.4607 2.693431 13.22345 -11.05217 -0 22.38806 -0 -20.79605 3.356819 2.634176 -2.421916 -1.90024 -14.17914 -0 16.79186 -0 -7.512652 -13.53002 21.47671 1.076498 -1.879192 7.480532 1.246104 15.93491 -8.814078 -0.2487661 21.0588 3.525767 3.317949 -19.39429 2.328816 -3.382837 -25.41816 13.00971 94.53977 20.43772 -21.38953 -0 0 17.80497 -19.84445 9.009395 3.499865 4.382385 -28.12365 -10.40156 -88.9755 7.872462 24.08007 0 0 -18.27981 15.57178 13.10809 -10.18414
-768.8448 165.7483 2032.844 -13.90997 10.24262 -126.9326 2.693497 13.22333 -11.05225 -0 22.3878 -0 -20.79609 3.356757 2.634127 -2.421886 -1.900143 -14.17909 -0 16.79199 -0 -7.512647 -13.53007 21.4767 1.076489 -1.879188 7.48052 1.246097 15.9349 -8.814072 -0.2487677 21.05881 3.525779 3.31797 -19.39427 2.328811 -3.382819 -25.41812 13.0097 94.53976 20.43774 -21.38954 -0 0 17.80494 -19.84446 9.009387 3.499857 4.382409 -28.12367 -10.40157 -88.97548 7.872455 24.08 0 0 -18.27985 15.57179 13.10808 -10.18417
-773.9796 165.621 2029.312 -13.82557 10.35739 -127.4049 2.693568 13.22329 -11.05231 -0 22.38757 -0 -20.79614 3.356661 2.63407 -2.421849 -1.900095 -14.17906 -0 16.79211 -0 -7.512647 -13.53009 21.47671 1.076481 -1.879185 7.480513 1.246089 15.9349 -8.814064 -0.2487696 21.05881 3.525789 3.317988 -19.39425 2.328805 -3.382798 -25.4181 13.0097 94.53974 20.43777 -21.38954 -0 0 17.80493 -19.84447 9.009381 3.499855 4.382425 -28.12367 -10.40157 -88.97548 7.872448 24.07997 0 0 -18.27986 15.5718 13.10807 -10.18417
-779.0847 165.4937 2025.737 -13.74018 10.47146 -127.8775 2.693643 13.22331 -11.05235 -0 22.38738 -0 -20.79618 3.356537 2.634009 -2.421807 -1.900095 -14.17905 -0 16.79221 -0 -7.512651 -13.53009 21.47673 1.076473 -1.879182 7.480511 1.246083 15.93489 -8.814056 -0.2487718 21.05881 3.525796 3.318002 -19.39423 2.328798 -3.382777 -25.41809 13.00969 94.53971 20.4378 -21.38952 -0 0 17.80494 -19.84447 9.00938 3.499859 4.382433 -28.12367 -10.40157 -88.97548 7.872441 24.07997 0 0 -18.27983 15.5718 13.10806 -10.18417
-784.1597 165.3663 2022.119 -13.65379 10.58485 -128.3504 2.693717 13.2234 -11.05237 -0 22.38723 -0 -20.79622 3.356391 2.633945 -2.421762 -1.900141 -14.17904 -0 16.79228 -0 -7.512659 -13.53006 21.47677 1.076467 -1.879179 7.480515 1.246078 15.93489 -8.814046 -0.2487741 21.05881 3.525799 3.318014 -19.39421 2.32879 -3.382756 -25.41809 13.00969 94.53968 20.43782 -21.38949 -0 0 17.80497 -19.84447 9.009381 3.499867 4.382432 -28.12366 -10.40157 -88.9755 7.872435 24.08 0 0 -18.27977 15.57179 13.10805 -10.18415
-789.2043 165.239 2018.459 -13.56642 10.69752 -128.8238 2.693787 13.22354 -11.05237 -0 22.38712 -0 -20.79626 3.356232 2.633883 -2.421717 -1.900228 -14.17906 -0 16.79233 -0 -7.512671 -13.53001 21.47681 1.076462 -1.879176 7.480523 1.246074 15.93489 -8.814035 -0.2487764 21.0588 3.525799 3.318021 -19.39419 2.328782 -3.382736 -25.4181 13.00969 94.53964 20.43784 -21.38945 -0 0 17.80501 -19.84447 9.009385 3.49988 4.382423 -28.12365 -10.40158 -88.97553 7.872429 24.08006 0 0 -18.27969 15.57177 13.10804 -10.18411
-794.2182 165.1117 2014.757 -13.47807 10.80949 -129.2975 2.693851 13.22373 -11.05235 -0 22.38707 -0 -20.79629 3.356068 2.633825 -2.421673 -1.900349 -14.17908 -0 16.79236 -0 -7.512685 -13.52994 21.47686 1.076459 -1.879174 7.480535 1.246071 15.93489 -8.814025 -0.2487786 21.0588 3.525796 3.318024 -19.39417 2.328774 -3.382718 -25.41813 13.0097 94.53961 20.43785 -21.3894 -0 0 17.80507 -19.84447 9.009392 3.499896 4.382407 -28.12363 -10.40158 -88.97556 7.872424 24.08014 0 0 -18.27958 15.57175 13.10804 -10.18407
-799.201 164.9844 2011.013 -13.38873 10.92072 -129.7715 2.693905 13.22395 -11.05232 -0 22.38706 -0 -20.79632 3.355905 2.633773 -2.421632 -1.900497 -14.17911 -0 16.79236 -0 -7.5127 -13.52986 21.47692 1.076457 -1.879172 7.48055 1.24607 15.93489 -8.814015 -0.2487807 21.05879 3.525791 3.318024 -19.39415 2.328766 -3.382702 -25.41816 13.0097 94.53957 20.43787 -21.38934 -0 0 17.80514 -19.84446 9.009402 3.499914 4.382386 -28.12361 -10.40157 -88.97561 7.87242 24.08025 0 0 -18.27946 15.57172 13.10803 -10.18403
-804.1523 164.8571 2007.228 -13.29842 11.03122 -130.2459 2.693949 13.2242 -11.05227 -0 22.38709 -0 -20.79634 3.35575 2.633729 -2.421596 -1.900665 -14.17915 -0 16.79234 -0 -7.512717 -13.52977 21.47698 1.076458 -1.879171 7.480568 1.246071 15.9349 -8.814006 -0.2487825 21.05878 3.525783 3.31802 -19.39413 2.328759 -3.38269 -25.4182 13.00971 94.53953 20.43787 -21.38928 -0 0 17.80522 -19.84445 9.009412 3.499934 4.38236 -28.12359 -10.40157 -88.97565 7.872418 24.08036 0 0 -18.27934 15.57169 13.10803 -10.18397
-809.0719 164.7298 2003.402 -13.20713 11.14098 -130.7207 2.69398 13.22446 -11.0522 -0 22.38717 -0 -20.79635 3.355611 2.633694 -2.421566 -1.900843 -14.1792 -0 16.7923 -0 -7.512734 -13.52967 21.47704 1.076459 -1.87917 7.480587 1.246072 15.9349 -8.813999 -0.248784 21.05878 3.525773 3.318013 -19.39412 2.328752 -3.382681 -25.41825 13.00971 94.53949 20.43788 -21.38922 -0 0 17.80529 -19.84444 9.009424 3.499954 4.38233 -28.12356 -10.40157 -88.9757 7.872416 24.08049 0 0 -18.27921 15.57166 13.10803 -10.18392
-813.9593 164.6025 1999.535 -13.11488 11.24998 -131.1958 2.693999 13.22472 -11.05213 -0 22.38728 -0 -20.79636 3.355492 2.63367 -2.421543 -1.901024 -14.17925 -0 16.79224 -0 -7.512751 -13.52957 21.4771 1.076462 -1.87917 7.480607 1.246075 15.93491 -8.813992 -0.2487851 21.05877 3.525762 3.318003 -19.39411 2.328747 -3.382675 -25.4183 13.00972 94.53946 20.43788 -21.38916 -0 0 17.80537 -19.84442 9.009436 3.499975 4.382299 -28.12354 -10.40157 -88.97575 7.872416 24.08061 0 0 -18.27908 15.57163 13.10803 -10.18386
-818.8142 164.4752 1995.626 -13.02167 11.35822 -131.6713 2.694005 13.22497 -11.05206 -0 22.38742 -0 -20.79636 3.355396 2.633656 -2.421528 -1.901199 -14.17931 -0 16.79217 -0 -7.512766 -13.52948 21.47715 1.076466 -1.879171 7.480627 1.246079 15.93492 -8.813988 -0.2487858 21.05876 3.525751 3.31799 -19.3941 2.328743 -3.382674 -25.41834 13.00973 94.53943 20.43787 -21.38911 -0 0 17.80544 -19.84441 9.009449 3.499994 4.382268 -28.12351 -10.40156 -88.9758 7.872417 24.08073 0 0 -18.27896 15.5716 13.10803 -10.18381
-823.6364 164.3479 1991.678 -12.92751 11.46568 -132.1472 2.693999 13.22519 -11.05198 -0 22.38758 -0 -20.79635 3.355327 2.633653 -2.421521 -1.901361 -14.17936 -0 16.79208 -0 -7.51278 -13.52939 21.47719 1.076471 -1.879171 7.480645 1.246083 15.93492 -8.813985 -0.2487861 21.05875 3.525739 3.317977 -19.3941 2.328741 -3.382675 -25.41839 13.00974 94.53941 20.43786 -21.38906 -0 0 17.80551 -19.8444 9.00946 3.500011 4.382237 -28.12349 -10.40156 -88.97584 7.872419 24.08085 0 0 -18.27885 15.57157 13.10804 -10.18377
-828.4253 164.2206 1987.689 -12.83239 11.57237 -132.6234 2.693981 13.22539 -11.05191 -0 22.38775 -0 -20.79634 3.355286 2.63366 -2.421521 -1.901505 -14.17941 -0 16.79199 -0 -7.512791 -13.52932 21.47723 1.076477 -1.879173 7.480661 1.246088 15.93493 -8.813984 -0.2487861 21.05874 3.525728 3.317962 -19.3941 2.32874 -3.38268 -25.41843 13.00974 94.5394 20.43785 -21.38903 -0 0 17.80557 -19.84439 9.009471 3.500026 4.382209 -28.12347 -10.40156 -88.97588 7.872422 24.08095 0 0 -18.27877 15.57155 13.10804 -10.18373
